<?xml version="1.0" encoding="utf-8"?>
<!-- Generator: Adobe Illustrator 27.2.0, SVG Export Plug-In . SVG Version: 6.00 Build 0)  -->
<svg version="1.1" id="Layer_2_00000072979771527343184290000001915703579731037319_"
	 xmlns="http://www.w3.org/2000/svg" xmlns:xlink="http://www.w3.org/1999/xlink" x="0px" y="0px" viewBox="0 0 89 88.6"
	 style="enable-background:new 0 0 89 88.6;" xml:space="preserve">
<style type="text/css">
	.st0{fill:#FFFFFF;stroke:#000000;stroke-width:0.25;stroke-miterlimit:10;}
</style>
<g id="Layer_2-2">
	<g>
		<path class="st0" d="M7.4,0.5c0,0,35.2,39.2,74.3-0.5C81.7,0,48.3,60.7,7.4,0.5z"/>
		<path class="st0" d="M88.5,6.9c0,0-39.2,35.2,0.5,74.3C89,81.2,28.3,47.8,88.5,6.9z"/>
		<path class="st0" d="M82.6,88.1c0,0-35.2-39.2-74.3,0.5C8.3,88.6,41.6,27.9,82.6,88.1z"/>
		<path class="st0" d="M0.5,81.7c0,0,39.2-35.1-0.5-74.3C0,7.4,60.7,40.8,0.5,81.7z"/>
		<g>
			<path class="st0" d="M31.4,51.7c0.4-0.8,0.5-1.2,0.5-2.6v-9.5c0-1.4-0.1-1.9-0.5-2.6H36c-0.4,0.8-0.5,1.2-0.5,2.6v9.5
				c0,1.4,0.1,1.9,0.5,2.6H31.4z"/>
			<path class="st0" d="M49.8,39.7l0.4-2.8H38.8l0.4,2.8c1.1-0.5,1.8-0.6,3.5-0.6v10c0,1.4-0.1,1.9-0.5,2.6h4.7
				c-0.4-0.8-0.5-1.2-0.5-2.6v-10C48.1,39.1,48.7,39.2,49.8,39.7z"/>
			<path class="st0" d="M53,51.7c0.4-0.8,0.5-1.2,0.5-2.6v-9.5c0-1.4-0.1-1.9-0.5-2.6h4.6c-0.4,0.8-0.5,1.2-0.5,2.6v9.5
				c0,1.4,0.1,1.9,0.5,2.6H53z"/>
		</g>
	</g>
</g>
</svg>
